inDegrees=no
num_controls=7
num_derivatives=13
num_iterations=114
num_multipliers=7
num_parameters=0
num_slacks=7
num_states=26
objective=0.425750
objective_accelerations=0.059129
objective_balance=0.001276
objective_effort=0.014721
objective_height=0.344711
objective_ligament=0.005913
solver_duration=1650.536355
status=Solve_Succeeded
success=true
DataType=double
version=3
OpenSimVersion=4.5
endheader
time	/jointset/ground_pelvis/pelvis_tilt/value	/jointset/ground_pelvis/pelvis_tx/value	/jointset/ground_pelvis/pelvis_ty/value	/jointset/hip_l/hip_flexion_l/value	/jointset/hip_l/hip_adduction_l/value	/jointset/hip_l/hip_rotation_l/value	/jointset/back/lumbar_extension/value	/jointset/patellofemoral_l/patellar_flexion_l/value	/jointset/knee_l/knee_flexion_l/value	/jointset/knee_l/knee_adduction_l/value	/jointset/knee_l/knee_rotation_l/value	/jointset/ankle_l/ankle_angle_l/value	/jointset/subtalar_l/subtalar_angle_l/value	/jointset/ground_pelvis/pelvis_tilt/speed	/jointset/ground_pelvis/pelvis_tx/speed	/jointset/ground_pelvis/pelvis_ty/speed	/jointset/hip_l/hip_flexion_l/speed	/jointset/hip_l/hip_adduction_l/speed	/jointset/hip_l/hip_rotation_l/speed	/jointset/back/lumbar_extension/speed	/jointset/patellofemoral_l/patellar_flexion_l/speed	/jointset/knee_l/knee_flexion_l/speed	/jointset/knee_l/knee_adduction_l/speed	/jointset/knee_l/knee_rotation_l/speed	/jointset/ankle_l/ankle_angle_l/speed	/jointset/subtalar_l/subtalar_angle_l/speed	/forceset/tau_hip_flexion_l	/forceset/tau_hip_adduction_l	/forceset/tau_hip_rotation_l	/forceset/tau_knee_flexion_l	/forceset/tau_ankle_angle_l	/forceset/tau_subtalar_angle_l	/forceset/tau_lumbar_extension	lambda_cid13_p0	lambda_cid13_p1	lambda_cid13_p2	lambda_cid13_p3	lambda_cid13_p4	lambda_cid13_p5	lambda_cid14_p0	/jointset/ground_pelvis/pelvis_tilt/accel	/jointset/ground_pelvis/pelvis_tx/accel	/jointset/ground_pelvis/pelvis_ty/accel	/jointset/hip_l/hip_flexion_l/accel	/jointset/hip_l/hip_adduction_l/accel	/jointset/hip_l/hip_rotation_l/accel	/jointset/back/lumbar_extension/accel	/jointset/patellofemoral_l/patellar_flexion_l/accel	/jointset/knee_l/knee_flexion_l/accel	/jointset/knee_l/knee_adduction_l/accel	/jointset/knee_l/knee_rotation_l/accel	/jointset/ankle_l/ankle_angle_l/accel	/jointset/subtalar_l/subtalar_angle_l/accel	gamma_cid13_p0	gamma_cid13_p1	gamma_cid13_p2	gamma_cid13_p3	gamma_cid13_p4	gamma_cid13_p5	gamma_cid14_p0
0.5	-0.2080912737644429	0.03064391357735043	0.7702245230819575	0.9902333398624227	-0.3615446313944706	-0.003658012306059982	-0.4005241648977675	0.9711585534350545	0.9711585534349622	-0.02554160951859899	-0.1744987878032966	0.3188845482293154	0.1683615175507087	-0.7221386917698378	-0.173972488786611	-0.5354420531123899	2.395512110365611	0.0427913820324098	0.5244627541672465	-0.3103786733778242	2.03667848104371	2.036678481043825	0.3398839048273275	0.0003356018196500926	0.5327889529791114	0.285917858094567	-0.09854219447642953	0.03176776181404884	-0.002403918968135075	-0.2065245073354448	0.007920664400009427	0.0147029420539779	0.1131125681158416	-21.74411305267562	-0.9223662924334526	-2.025378494322143	-1.157696546534811	-438.2856720801258	-63.67909477046775	-4.474170473139216	0.321839190535353	0.4166026978547908	-0.5051801030031305	-1.140785369473669	0.07601004258852299	-0.8128798740360412	1.383893397686732	-1.55383485918536	-1.553834859185353	-0.1656796952097556	-0.01766465806987772	-0.8927657891304395	0.06346039211412582	-4.965763356483362e-07	4.530240801873756e-07	7.406325258305551e-06	5.065605477582678e-07	-1.442443422905531e-06	-7.992988574368929e-07	-8.398160788660707e-07
0.51	-0.2152945894911033	0.02892541785974433	0.76484623129705	1.014126314525423	-0.3611155960194076	0.001553309281547879	-0.4035594515646219	0.9914438342929928	0.9914438342929855	-0.02216203451362132	-0.1744954685838195	0.3241661875581558	0.1712192223563705	-0.7184255336980481	-0.1696951272188779	-0.5400875016743591	2.382738899698237	0.04301644210033422	0.5177380026343829	-0.2966393491817073	2.020075904122408	2.020075904122648	0.3360370781566085	0.0003053472944835775	0.5234715555129078	0.2855798898005084	-0.1029912281709956	0.03245923828148271	-0.002841918705118145	-0.2096618166665468	0.007108786274794037	0.01522002580947845	0.1166055438774569	-22.17294914260226	-0.933282510456774	-2.181917238633774	-1.236130464657875	-441.7860887799344	-63.99612483033824	-3.864866325713093	0.4108715528347753	0.4381400262842975	-0.4251895417069951	-1.397228738230871	-0.005322547594077982	-0.6126197757487356	1.374848552284284	-1.758572101330469	-1.758572101311873	-0.4931302414475398	0.002293597826604484	-0.9613088559876791	-0.08990659951483225	-4.743324263615057e-07	8.085075366608904e-07	7.350931468084685e-06	5.478796540346043e-07	-1.379447388463619e-06	-3.797010302471048e-07	-8.145630171984649e-07
0.52	-0.2224578101495802	0.02725066318582591	0.75942529256474	1.037881229117177	-0.3606845253509635	0.006695313957260906	-0.4064561656651733	1.011554068783174	1.01155406878325	-0.0188207169930517	-0.1744928520200776	0.3293526364862096	0.174072051247222	-0.7141196781328972	-0.165224280049076	-0.5439714425928606	2.367900096116398	0.04319844070871805	0.5105993717880322	-0.2826641601171846	2.001669207491988	2.001669207492351	0.3322324079481072	0.0001950706719824896	0.5137508728218094	0.2849426751324908	-0.1074402618655651	0.03315071474892394	-0.003279918442193371	-0.2127991259976496	0.006296908149581273	0.01573710956499193	0.1200985196390679	-22.5957598371231	-0.9529807248246842	-2.328225691031796	-1.365522073173417	-445.1991720286036	-64.43102912452969	-3.3061677645539	0.4403786892075747	0.4552998182685724	-0.3528785743095816	-1.553903952366692	0.06739775068040013	-0.8956557367334556	1.431066371367891	-1.91465880100919	-1.914658801009105	-0.1572484027662308	-0.03366907753679698	-0.9734228341093947	0.00361111732234369	-4.533129018752086e-07	9.936749473478533e-07	7.201444194708309e-06	5.636716149400156e-07	-1.311272204101985e-06	-4.290293894016741e-08	-7.937736876252799e-07
0.53	-0.2295749304955195	0.0256213519137121	0.7539693580665555	1.06147772820144	-0.3602517003501589	0.01176473385449178	-0.4092120603589182	1.031471472727787	1.031471472727846	-0.01551774902556073	-0.1744913927771967	0.3344397637239118	0.1769170534747986	-0.7091936000462877	-0.1606293714905429	-0.547082645253726	2.351070049275123	0.04336085951947918	0.503293134716262	-0.2684896561183622	1.981518583311517	1.981518583311559	0.3282958260162009	9.97962668953908e-05	0.5035856616369601	0.2839896125241896	-0.1124164465897041	0.03432518526908939	-0.003569076317272993	-0.2151791631369202	0.00406961107713706	0.01586057955474823	0.1238729621283146	-23.53606651023617	-0.7174478276123364	-2.508003992031643	-0.9005269578977565	-448.8030739000519	-64.33332995169769	-2.796885269676963	0.5353245064120543	0.4629912004040383	-0.2705744360308384	-1.797051309665695	-0.01134522336552724	-0.6475738635762656	1.414410791161432	-2.109057373632351	-2.109057373680651	-0.5215096146296184	0.004396813343386837	-1.051372761808778	-0.1560111965420832	-3.900106021928773e-07	8.448460454357936e-07	6.24813559212081e-06	4.849001555934613e-07	-1.126548283006231e-06	8.924158889178865e-08	-6.982233010615565e-07
